# xmcd
#
# Track frame offsets:
#	183
#	18433
#	36483
#	52418
#	72433
#	89970
#	116058
#	141445
#	163328
#	197120
#	216283
#	236195
#	252808
#	266883
#	285933
#
# Disc length: 3994 seconds
#
# Revision: 0
# Processed by: cddbd v1.5.2PL0 Copyright (c) Steve Scherf et al.
# Submitted via: dBpowerAMP V4.0
#
DISCID=fe0f980f
DTITLE=Various Artist - The Contemporary Rock Blues Collection
DYEAR=1992
DGENRE=Blues/Rock
TTITLE0=(Eric Clapton) Tulsa Time-Live
TTITLE1=(The Commitments) Mustang Sally
TTITLE2=(Bluesiana II) Doctor Blooze
TTITLE3=(Buddy Guy) Damn Right I've Got The Blues
TTITLE4=(Taj Mahal) Blues With A Feeling
TTITLE5=(Willie Dixon) Blues You Can't Lose
TTITLE6=(John Lee Hooker) The Healer
TTITLE7=(B.B. King) When Love Comes To Town
TTITLE8=(Eric Clapton) Further Up On The Road-Live
TTITLE9=(John Mayall) I Can't Complain
TTITLE10=(The Jeff Healey Band) See The Light
TTITLE11=(Brendan Croker) All Mixed Up
TTITLE12=(J.J. Cale) River Boat Song
TTITLE13=(B.B. King) Better Not Look Down
TTITLE14=(The Blues Brothers) Soul Man-Bonus Track
EXTD=
EXTT0=
EXTT1=
EXTT2=
EXTT3=
EXTT4=
EXTT5=
EXTT6=
EXTT7=
EXTT8=
EXTT9=
EXTT10=
EXTT11=
EXTT12=
EXTT13=
EXTT14=
PLAYORDER=
